# xmcd CD database file
#
# Track frame offsets:
#	182
#	28450
#	44172
#	85590
#	110900
#	131605
#	156860
#	172367
#	197950
#	215720
#	231067
#	253345
#
# Disc length: 3748 seconds
#
# Revision: 0
# Processed by: cddbd v1.5.2PL0 Copyright (c) Steve Scherf et al.
# Submitted via: CDex 1.51
#
DISCID=c10ea20c
DTITLE=George Cables - Person To Person
DYEAR=1996
DGENRE=Jazz
TTITLE0=My Funny Valentine
TTITLE1=I Told You So
TTITLE2=Sweet Rita Suite
TTITLE3=Blue Nights
TTITLE4=A Foggy Nights
TTITLE5=I Rember Clifford
TTITLE6=On Green Dolphin Street
TTITLE7=Love Song
TTITLE8=In A Sentimental Mood
TTITLE9=In Walked Bud
TTITLE10=Polkadots and Moonbeams
TTITLE11=Body and Soul
EXTD=YEAR: 1996
EXTT0=
EXTT1=
EXTT2=
EXTT3=
EXTT4=
EXTT5=
EXTT6=
EXTT7=
EXTT8=
EXTT9=
EXTT10=
EXTT11=
PLAYORDER=
